<svg fill="none" height="59" viewBox="0 0 205 59" width="205" xmlns="http://www.w3.org/2000/svg"><path d="m203.096 52.1958c0 3.1441-2.6 5.691-5.816 5.691h-190.32204c-3.21428 0-5.82333-2.5469-5.82333-5.691v-45.38414c0-3.14269 2.60905-5.69846 5.82333-5.69846h190.32104c3.217 0 5.816 2.55577 5.816 5.69846z" fill="#000"/><path d="m196.667 1.18185c3.502 0 6.352 2.77853 6.352 6.19316v44.24999c0 3.4146-2.85 6.1932-6.352 6.1932h-189.1029c-3.50218 0-6.35195-2.7786-6.35195-6.1932v-44.24999c0-3.41463 2.84977-6.19316 6.35195-6.19316zm0-1.18184452h-189.1029c-4.15836 0-7.5641 3.32059452-7.5641 7.37500452v44.24999c0 4.0544 3.40574 7.375 7.5641 7.375h189.1029c4.158 0 7.564-3.3206 7.564-7.375v-44.24999c0-4.05441-3.406-7.37500452-7.564-7.37500452z" fill="#a6a6a6"/><g fill="#fff"><path d="m45.5783 29.1814c-.0439-4.7539 3.9923-7.0667 4.1769-7.1744-2.2859-3.2494-5.8289-3.6934-7.074-3.7288-2.9757-.3053-5.8622 1.7361-7.378 1.7361-1.5461 0-3.8804-1.7066-6.3962-1.6565-3.2375.0487-6.2661 1.8762-7.9272 4.7141-3.428 5.7865-.8714 14.2898 2.413 18.967 1.6429 2.2907 3.5626 4.8484 6.0754 4.7584 2.4584-.0988 3.3767-1.5281 6.3433-1.5281 2.9394 0 3.8017 1.5281 6.3644 1.4706 2.6384-.0413 4.2995-2.301 5.8849-4.6123 1.8986-2.6255 2.6611-5.2112 2.6913-5.344-.062-.0206-5.1239-1.9042-5.1738-7.6021z"/><path d="m40.7372 15.2013c1.3222-1.6121 2.2269-3.8055 1.9758-6.03124-1.9137.0826-4.307 1.29064-5.6852 2.86744-1.2193 1.3894-2.3086 3.6668-2.0272 5.8085 2.1497.1564 4.3569-1.0576 5.7366-2.6447z"/><path d="m81.1553 46.4684h-3.4357l-1.8819-5.7658h-6.5414l-1.7927 5.7658h-3.3449l6.4809-19.6293h4.003zm-5.8849-8.1848-1.7019-5.1256c-.1801-.5237-.5174-1.7568-1.0151-3.6979h-.0606c-.1981.8349-.5173 2.068-.9561 3.6979l-1.6716 5.1256z"/><path d="m97.822 39.2173c0 2.4072-.6672 4.31-2.0015 5.7068-1.1951 1.2434-2.6792 1.8644-4.4507 1.8644-1.9122 0-3.2858-.6697-4.1224-2.009h-.0605v7.4562h-3.2254v-15.2619c0-1.5133-.0408-3.0665-.1195-4.6595h2.8365l.1801 2.2435h.0605c1.0756-1.6904 2.7079-2.5341 4.8985-2.5341 1.7125 0 3.1421.6594 4.2858 1.9795 1.1467 1.3216 1.7186 3.0591 1.7186 5.2141zm-3.2859.1151c0-1.3777-.3177-2.5134-.9561-3.4073-.6974-.9322-1.6338-1.3983-2.8078-1.3983-.7957 0-1.5188.2596-2.1648.7714-.6475.5163-1.0711 1.1904-1.2693 2.0252-.0998.3894-.1497.708-.1497.9588v2.36c0 1.0295.3237 1.8983.9712 2.6078.6475.7094 1.4886 1.0634 2.5234 1.0634 1.2148 0 2.1603-.4572 2.8365-1.3688.6778-.913 1.0166-2.1166 1.0166-3.6122z"/><path d="m114.519 39.2173c0 2.4072-.667 4.31-2.003 5.7068-1.194 1.2434-2.678 1.8644-4.449 1.8644-1.912 0-3.286-.6697-4.121-2.009h-.061v7.4562h-3.225v-15.2619c0-1.5133-.041-3.0665-.119-4.6595h2.836l.18 2.2435h.061c1.074-1.6904 2.706-2.5341 4.898-2.5341 1.711 0 3.141.6594 4.287 1.9795 1.143 1.3216 1.716 3.0591 1.716 5.2141zm-3.286.1151c0-1.3777-.319-2.5134-.957-3.4073-.698-.9322-1.631-1.3983-2.807-1.3983-.797 0-1.519.2596-2.166.7714-.648.5163-1.07 1.1904-1.268 2.0252-.098.3894-.15.708-.15.9588v2.36c0 1.0295.324 1.8983.969 2.6078.647.708 1.488 1.0634 2.526 1.0634 1.215 0 2.16-.4572 2.837-1.3688.677-.913 1.016-2.1166 1.016-3.6122z"/><path d="m133.187 40.9637c0 1.6697-.594 3.0282-1.788 4.0769-1.312 1.1461-3.138 1.7184-5.484 1.7184-2.166 0-3.903-.4071-5.218-1.2228l.748-2.6211c1.416.8349 2.969 1.2538 4.662 1.2538 1.215 0 2.16-.2685 2.84-.8024.676-.534 1.013-1.2508 1.013-2.1447 0-.7965-.278-1.4676-.836-2.0119-.555-.5443-1.483-1.0502-2.778-1.5178-3.525-1.2817-5.286-3.1594-5.286-5.6286 0-1.6136.618-2.9367 1.854-3.9662 1.231-1.0311 2.874-1.5458 4.928-1.5458 1.832 0 3.354.3112 4.569.9322l-.806 2.5635c-1.135-.6018-2.418-.9027-3.853-.9027-1.135 0-2.022.2729-2.657.8157-.537.4853-.806 1.0767-.806 1.7774 0 .7758.307 1.4174.924 1.9219.537.4661 1.513.9705 2.929 1.5148 1.732.68 3.004 1.475 3.823 2.3866.815.9086 1.222 2.0458 1.222 3.4028z"/><path d="m143.851 34.6743h-3.555v6.872c0 1.7479.626 2.6211 1.882 2.6211.576 0 1.054-.0487 1.433-.1461l.089 2.3881c-.636.2315-1.472.3481-2.508.3481-1.274 0-2.27-.3791-2.988-1.1358-.716-.7581-1.076-2.0296-1.076-3.8158v-7.1346h-2.118v-2.36h2.118v-2.5916l3.168-.9322v3.5238h3.555z"/><path d="m159.891 39.2748c0 2.1756-.638 3.9619-1.912 5.3587-1.336 1.4381-3.109 2.155-5.319 2.155-2.13 0-3.826-.6889-5.09-2.0665-1.265-1.3777-1.898-3.1167-1.898-5.2127 0-2.1933.651-3.9898 1.957-5.3867 1.302-1.3983 3.06-2.0974 5.27-2.0974 2.13 0 3.844.6888 5.138 2.0679 1.237 1.3379 1.854 3.0651 1.854 5.1817zm-3.346.1018c0-1.3054-.286-2.4249-.865-3.3586-.676-1.1298-1.643-1.6933-2.896-1.6933-1.296 0-2.281.5649-2.957 1.6933-.58.9352-.866 2.0724-.866 3.4176 0 1.3054.286 2.4249.866 3.3571.697 1.1298 1.671 1.6933 2.929 1.6933 1.231 0 2.198-.5753 2.895-1.7228.595-.9514.894-2.0827.894-3.3866z"/><path d="m170.375 35.0799c-.319-.0575-.659-.087-1.016-.087-1.135 0-2.012.4174-2.63 1.2538-.537.7375-.806 1.6697-.806 2.7951v7.4266h-3.224l.031-9.6966c0-1.6314-.041-3.1167-.121-4.456h2.809l.118 2.7081h.089c.34-.9307.878-1.68 1.613-2.242.718-.5059 1.494-.7582 2.331-.7582.298 0 .567.0207.806.0576z"/><path d="m184.8 38.7217c0 .5634-.038 1.0384-.118 1.4263h-9.676c.038 1.3983.505 2.4677 1.404 3.2052.815.6593 1.87.9897 3.165.9897 1.432 0 2.74-.2227 3.915-.6697l.505 2.183c-1.373.5841-2.995.8747-4.866.8747-2.252 0-4.019-.646-5.304-1.9367-1.283-1.2906-1.926-3.0237-1.926-5.1979 0-2.1343.597-3.9117 1.794-5.3291 1.253-1.5134 2.945-2.2701 5.075-2.2701 2.093 0 3.677.7567 4.752 2.2701.852 1.2021 1.28 2.6889 1.28 4.4545zm-3.075-.8157c.021-.9322-.19-1.7376-.627-2.4175-.558-.8747-1.416-1.3113-2.57-1.3113-1.054 0-1.912.4263-2.567 1.2818-.537.6799-.857 1.4956-.955 2.4455h6.719z"/><path d="m74.2074 15.1108h-1.3296c-.0511-.2841-.1463-.5341-.2855-.75s-.3096-.3992-.5113-.5497c-.2017-.1506-.4276-.2642-.6776-.3409-.2471-.0767-.5099-.1151-.7883-.1151-.5029 0-.9532.1264-1.3509.3793-.3949.2528-.7074.6236-.9375 1.1122-.2273.4886-.3409 1.0852-.3409 1.7898 0 .7102.1136 1.3096.3409 1.7983.2301.4886.544.8579.9418 1.1079.3977.25.8451.375 1.3423.375.2756 0 .5369-.0369.7841-.1108.25-.0767.4758-.1889.6775-.3366.2017-.1478.3722-.3282.5114-.5412.1421-.2159.2401-.4631.294-.7415l1.3296.0043c-.071.4289-.2088.8238-.4134 1.1846-.2017.358-.4616.6676-.7798.929-.3153.2585-.6761.4588-1.0824.6008-.4062.1421-.8494.2131-1.3295.2131-.7557 0-1.429-.179-2.0199-.5369-.5909-.3608-1.0568-.8764-1.3977-1.5469-.3381-.6704-.5071-1.4702-.5071-2.3991 0-.9319.1704-1.7316.5113-2.3992.3409-.6704.8068-1.1846 1.3977-1.5426.591-.3608 1.2628-.5412 2.0157-.5412.463 0 .8949.0668 1.2954.2003.4034.1307.7657.3239 1.0867.5795.321.2529.5866.5625.7968.929.2103.3637.3523.7798.4262 1.2486zm4.2305 6.0213c-.6137 0-1.1492-.1406-1.6066-.4219-.4574-.2812-.8125-.6747-1.0653-1.1804-.2529-.5057-.3793-1.0966-.3793-1.7727 0-.679.1264-1.2727.3793-1.7812.2528-.5086.6079-.9035 1.0653-1.1847.4574-.2813.9929-.4219 1.6066-.4219.6136 0 1.1491.1406 1.6065.4219.4574.2812.8125.6761 1.0653 1.1847.2529.5085.3793 1.1022.3793 1.7812 0 .6761-.1264 1.267-.3793 1.7727-.2528.5057-.6079.8992-1.0653 1.1804-.4574.2813-.9929.4219-1.6065.4219zm.0042-1.0696c.3977 0 .7273-.1051.9887-.3153.2613-.2103.4545-.4901.5795-.8395.1278-.3495.1918-.7344.1918-1.1549 0-.4176-.064-.8011-.1918-1.1505-.125-.3523-.3182-.635-.5795-.848-.2614-.2131-.591-.3196-.9887-.3196-.4006 0-.7329.1065-.9971.3196-.2614.213-.456.4957-.5838.848-.125.3494-.1875.7329-.1875 1.1505 0 .4205.0625.8054.1875 1.1549.1278.3494.3224.6292.5838.8395.2642.2102.5965.3153.9971.3153zm4.4691.9375v-6.5455h1.223v1.0654h.081c.1364-.3608.3594-.6421.669-.8438.3097-.2045.6804-.3068 1.1122-.3068.4375 0 .804.1023 1.0995.3068.2983.2046.5184.4858.6605.8438h.0682c.1562-.3494.4048-.6279.7457-.8352.3409-.2103.7472-.3154 1.2188-.3154.5937 0 1.0781.1861 1.4531.5583.3778.3721.5667.9332.5667 1.6832v4.3892h-1.2741v-4.2699c0-.4432-.1207-.7642-.3622-.9631-.2415-.1988-.5298-.2982-.8651-.2982-.4147 0-.7372.1278-.9673.3835-.2301.2528-.3452.5781-.3452.9758v4.1719h-1.2699v-4.3509c0-.3551-.1108-.6406-.3323-.8565-.2216-.2159-.51-.3238-.8651-.3238-.2415 0-.4645.0639-.669.1917-.2017.125-.3651.2997-.4901.5242-.1222.2244-.1832.4843-.1832.7798v4.0355zm10.6055 0v-6.5455h1.2741v6.5455zm.6435-7.5554c-.2216 0-.412-.0739-.5711-.2216-.1562-.1506-.2343-.3295-.2343-.5369 0-.2102.0781-.3892.2343-.537.1591-.1505.3495-.2258.5711-.2258.2215 0 .4105.0753.5667.2258.1591.1478.2387.3268.2387.537 0 .2074-.0796.3863-.2387.5369-.1562.1477-.3452.2216-.5667.2216zm3.6189 3.669v3.8864h-1.2741v-6.5455h1.223v1.0654h.0809c.1506-.3466.3864-.625.7074-.8352.3239-.2103.7316-.3154 1.223-.3154.4457 0 .8367.0938 1.1717.2813.335.1846.595.4602.78.8267.185.3664.277.8196.277 1.3593v4.1634h-1.274v-4.0099c0-.4745-.124-.8452-.371-1.1123-.247-.2698-.5865-.4048-1.0183-.4048-.2955 0-.5583.0639-.7884.1918-.2272.1278-.4076.3153-.5412.5625-.1306.2443-.196.5397-.196.8863zm8.6419 6.4773c-.52 0-.967-.0682-1.342-.2045-.372-.1364-.676-.3168-.912-.5412-.236-.2245-.412-.4702-.529-.7372l1.096-.4518c.076.125.179.2572.306.3964.131.142.307.2627.529.3622.224.0994.513.1491.865.1491.483 0 .882-.1179 1.197-.3537.316-.2329.473-.6051.473-1.1164v-1.287h-.081c-.076.1392-.187.2941-.332.4645-.142.1705-.338.3182-.588.4432s-.575.1875-.976.1875c-.517 0-.983-.1208-1.398-.3622-.412-.2443-.738-.6037-.98-1.0782-.238-.4772-.358-1.0639-.358-1.7599s.118-1.2926.354-1.7898c.239-.4971.565-.8778.98-1.142.415-.2671.885-.4006 1.411-.4006.406 0 .734.0682.984.2046.25.1335.445.2897.584.4687.142.179.251.3367.328.473h.094v-1.0611h1.248v6.6904c0 .5625-.13 1.0241-.392 1.3849-.261.3608-.615.6279-1.061.8012-.443.1733-.943.2599-1.5.2599zm-.013-3.7457c.367 0 .677-.0853.929-.2557.256-.1733.449-.4205.58-.7415.133-.3239.2-.7116.2-1.1633 0-.4404-.065-.8282-.196-1.1634s-.322-.5966-.575-.7841c-.253-.1903-.565-.2855-.938-.2855-.383 0-.703.0994-.958.2983-.256.196-.449.4631-.58.8011-.128.3381-.192.7159-.192 1.1336 0 .4289.066.8054.196 1.1292.131.3239.324.5767.58.7585.258.1819.577.2728.954.2728zm12.713-5.2799c-.045-.4034-.233-.7159-.562-.9375-.33-.2244-.745-.3366-1.245-.3366-.358 0-.667.0568-.929.1704-.261.1108-.464.2643-.609.4603-.142.1932-.213.4133-.213.6605 0 .2074.048.3863.145.5369.099.1506.228.277.388.3793.161.0994.335.1832.519.2514.185.0653.363.1193.533.1619l.852.2216c.279.0682.564.1605.857.277s.564.2699.814.4602c.25.1904.452.4262.605.7074.156.2813.234.6179.234 1.01 0 .4943-.128.9332-.383 1.3167-.253.3836-.621.6861-1.104.9077-.48.2216-1.061.3324-1.743.3324-.653 0-1.219-.1037-1.696-.3111s-.851-.5014-1.121-.8821c-.269-.3835-.419-.8381-.447-1.3636h1.321c.026.3153.128.5781.307.7883.182.2074.413.3622.694.4645.285.0994.596.1492.934.1492.372 0 .703-.0583.993-.1748.292-.1193.522-.2841.69-.4943.168-.213.251-.4616.251-.7457 0-.2585-.074-.4702-.221-.635-.145-.1647-.343-.3011-.593-.4091-.247-.1079-.527-.2031-.839-.2855l-1.031-.2812c-.699-.1904-1.253-.4702-1.662-.8395-.407-.3693-.61-.858-.61-1.4659 0-.5029.137-.9418.409-1.3168.273-.375.642-.6662 1.108-.8735.466-.2103.992-.3154 1.577-.3154.591 0 1.112.1037 1.564.3111.455.2074.813.4929 1.074.8565.261.3608.398.7756.409 1.2443zm5.618 6.5668c-.614 0-1.15-.1406-1.607-.4219-.457-.2812-.812-.6747-1.065-1.1804s-.379-1.0966-.379-1.7727c0-.679.126-1.2727.379-1.7812.253-.5086.608-.9035 1.065-1.1847.457-.2813.993-.4219 1.607-.4219.613 0 1.149.1406 1.606.4219.458.2812.813.6761 1.066 1.1847.252.5085.379 1.1022.379 1.7812 0 .6761-.127 1.267-.379 1.7727-.253.5057-.608.8992-1.066 1.1804-.457.2813-.993.4219-1.606.4219zm.004-1.0696c.398 0 .727-.1051.989-.3153.261-.2103.454-.4901.579-.8395.128-.3495.192-.7344.192-1.1549 0-.4176-.064-.8011-.192-1.1505-.125-.3523-.318-.635-.579-.848-.262-.2131-.591-.3196-.989-.3196-.401 0-.733.1065-.997.3196-.262.213-.456.4957-.584.848-.125.3494-.188.7329-.188 1.1505 0 .4205.063.8054.188 1.1549.128.3494.322.6292.584.8395.264.2102.596.3153.997.3153zm7.226 1.0696c-.614 0-1.149-.1406-1.606-.4219-.458-.2812-.813-.6747-1.066-1.1804s-.379-1.0966-.379-1.7727c0-.679.126-1.2727.379-1.7812.253-.5086.608-.9035 1.066-1.1847.457-.2813.992-.4219 1.606-.4219s1.149.1406 1.607.4219c.457.2812.812.6761 1.065 1.1847.253.5085.379 1.1022.379 1.7812 0 .6761-.126 1.267-.379 1.7727s-.608.8992-1.065 1.1804c-.458.2813-.993.4219-1.607.4219zm.004-1.0696c.398 0 .728-.1051.989-.3153.261-.2103.455-.4901.58-.8395.127-.3495.191-.7344.191-1.1549 0-.4176-.064-.8011-.191-1.1505-.125-.3523-.319-.635-.58-.848-.261-.2131-.591-.3196-.989-.3196-.4 0-.733.1065-.997.3196-.261.213-.456.4957-.584.848-.125.3494-.187.7329-.187 1.1505 0 .4205.062.8054.187 1.1549.128.3494.323.6292.584.8395.264.2102.597.3153.997.3153zm5.744-2.9489v3.8864h-1.275v-6.5455h1.223v1.0654h.081c.151-.3466.387-.625.708-.8352.324-.2103.731-.3154 1.223-.3154.446 0 .836.0938 1.172.2813.335.1846.595.4602.78.8267.184.3664.277.8196.277 1.3593v4.1634h-1.275v-4.0099c0-.4745-.123-.8452-.37-1.1123-.248-.2698-.587-.4048-1.019-.4048-.295 0-.558.0639-.788.1918-.227.1278-.408.3153-.541.5625-.131.2443-.196.5397-.196.8863zm12.129-2.6591v1.0228h-3.576v-1.0228zm-2.617-1.5681h1.274v6.1917c0 .2472.037.4333.111.5583.074.1221.169.2059.286.2514.119.0426.248.0639.387.0639.103 0 .192-.0071.269-.0213.076-.0142.136-.0256.179-.0341l.23 1.0526c-.074.0284-.179.0568-.315.0852-.137.0312-.307.0483-.512.0511-.335.0057-.648-.054-.937-.179-.29-.125-.525-.3181-.703-.5795-.179-.2614-.269-.5895-.269-.9844zm6.713 8.2457c-.614 0-1.149-.1406-1.607-.4219-.457-.2812-.812-.6747-1.065-1.1804s-.379-1.0966-.379-1.7727c0-.679.126-1.2727.379-1.7812.253-.5086.608-.9035 1.065-1.1847.458-.2813.993-.4219 1.607-.4219.613 0 1.149.1406 1.606.4219.458.2812.813.6761 1.066 1.1847.252.5085.379 1.1022.379 1.7812 0 .6761-.127 1.267-.379 1.7727-.253.5057-.608.8992-1.066 1.1804-.457.2813-.993.4219-1.606.4219zm.004-1.0696c.398 0 .727-.1051.989-.3153.261-.2103.454-.4901.579-.8395.128-.3495.192-.7344.192-1.1549 0-.4176-.064-.8011-.192-1.1505-.125-.3523-.318-.635-.579-.848-.262-.2131-.591-.3196-.989-.3196-.401 0-.733.1065-.997.3196-.261.213-.456.4957-.584.848-.125.3494-.187.7329-.187 1.1505 0 .4205.062.8054.187 1.1549.128.3494.323.6292.584.8395.264.2102.596.3153.997.3153z"/></g></svg>