<svg width="205" height="59" viewBox="0 0 205 59" fill="none" xmlns="http://www.w3.org/2000/svg">
<path d="M203.096 52.1958C203.096 55.3399 200.496 57.8868 197.28 57.8868H6.95796C3.74368 57.8868 1.13463 55.3399 1.13463 52.1958V6.81166C1.13463 3.66897 3.74368 1.1132 6.95796 1.1132H197.279C200.496 1.1132 203.095 3.66897 203.095 6.81166L203.096 52.1958Z" fill="black"/>
<path d="M196.667 1.18185C200.169 1.18185 203.019 3.96038 203.019 7.37501V51.625C203.019 55.0396 200.169 57.8182 196.667 57.8182H7.5641C4.06192 57.8182 1.21215 55.0396 1.21215 51.625V7.37501C1.21215 3.96038 4.06192 1.18185 7.5641 1.18185H196.667ZM196.667 5.4802e-06H7.5641C3.40574 5.4802e-06 0 3.3206 0 7.37501V51.625C0 55.6794 3.40574 59 7.5641 59H196.667C200.825 59 204.231 55.6794 204.231 51.625V7.37501C204.231 3.3206 200.825 5.4802e-06 196.667 5.4802e-06Z" fill="#A6A6A6"/>
<path d="M45.5783 29.1814C45.5344 24.4275 49.5706 22.1147 49.7552 22.007C47.4693 18.7576 43.9263 18.3136 42.6812 18.2782C39.7055 17.9729 36.819 20.0143 35.3032 20.0143C33.7571 20.0143 31.4228 18.3077 28.907 18.3578C25.6695 18.4065 22.6409 20.234 20.9798 23.0719C17.5518 28.8584 20.1084 37.3617 23.3928 42.0389C25.0357 44.3296 26.9554 46.8873 29.4682 46.7973C31.9266 46.6985 32.8449 45.2692 35.8115 45.2692C38.7509 45.2692 39.6132 46.7973 42.1759 46.7398C44.8143 46.6985 46.4754 44.4388 48.0608 42.1275C49.9594 39.502 50.7219 36.9163 50.7521 36.7835C50.6901 36.7629 45.6282 34.8793 45.5783 29.1814Z" fill="white"/>
<path d="M40.7372 15.2013C42.0594 13.5892 42.9641 11.3958 42.713 9.17006C40.7993 9.25266 38.406 10.4607 37.0278 12.0375C35.8085 13.4269 34.7192 15.7043 35.0006 17.846C37.1503 18.0024 39.3575 16.7884 40.7372 15.2013Z" fill="white"/>
<path d="M81.1553 46.4684H77.7196L75.8377 40.7026H69.2963L67.5036 46.4684H64.1587L70.6396 26.8391H74.6426L81.1553 46.4684ZM75.2704 38.2836L73.5685 33.158C73.3884 32.6343 73.0511 31.4012 72.5534 29.4601H72.4928C72.2947 30.295 71.9755 31.5281 71.5367 33.158L69.8651 38.2836H75.2704Z" fill="white"/>
<path d="M97.822 39.2173C97.822 41.6245 97.1548 43.5273 95.8205 44.9241C94.6254 46.1675 93.1413 46.7885 91.3698 46.7885C89.4576 46.7885 88.084 46.1188 87.2474 44.7795H87.1869V52.2357H83.9615V36.9738C83.9615 35.4605 83.9207 33.9073 83.842 32.3143H86.6785L86.8586 34.5578H86.9191C87.9947 32.8674 89.627 32.0237 91.8176 32.0237C93.5301 32.0237 94.9597 32.6831 96.1034 34.0032C97.2501 35.3248 97.822 37.0623 97.822 39.2173ZM94.5361 39.3324C94.5361 37.9547 94.2184 36.819 93.58 35.9251C92.8826 34.9929 91.9462 34.5268 90.7722 34.5268C89.9765 34.5268 89.2534 34.7864 88.6074 35.2982C87.9599 35.8145 87.5363 36.4886 87.3381 37.3234C87.2383 37.7128 87.1884 38.0314 87.1884 38.2822V40.6422C87.1884 41.6717 87.5121 42.5405 88.1596 43.25C88.8071 43.9594 89.6482 44.3134 90.683 44.3134C91.8978 44.3134 92.8433 43.8562 93.5195 42.9446C94.1973 42.0316 94.5361 40.828 94.5361 39.3324Z" fill="white"/>
<path d="M114.519 39.2173C114.519 41.6245 113.852 43.5273 112.516 44.9241C111.322 46.1675 109.838 46.7885 108.067 46.7885C106.155 46.7885 104.781 46.1188 103.946 44.7795H103.885V52.2357H100.66V36.9738C100.66 35.4605 100.619 33.9073 100.541 32.3143H103.377L103.557 34.5578H103.618C104.692 32.8674 106.324 32.0237 108.516 32.0237C110.227 32.0237 111.657 32.6831 112.803 34.0032C113.946 35.3248 114.519 37.0623 114.519 39.2173ZM111.233 39.3324C111.233 37.9547 110.914 36.819 110.276 35.9251C109.578 34.9929 108.645 34.5268 107.469 34.5268C106.672 34.5268 105.95 34.7864 105.303 35.2982C104.655 35.8145 104.233 36.4886 104.035 37.3234C103.937 37.7128 103.885 38.0314 103.885 38.2822V40.6422C103.885 41.6717 104.209 42.5405 104.854 43.25C105.501 43.958 106.342 44.3134 107.38 44.3134C108.595 44.3134 109.54 43.8562 110.217 42.9446C110.894 42.0316 111.233 40.828 111.233 39.3324Z" fill="white"/>
<path d="M133.187 40.9637C133.187 42.6334 132.593 43.9919 131.399 45.0406C130.087 46.1867 128.261 46.759 125.915 46.759C123.749 46.759 122.012 46.3519 120.697 45.5362L121.445 42.9151C122.861 43.75 124.414 44.1689 126.107 44.1689C127.322 44.1689 128.267 43.9004 128.947 43.3665C129.623 42.8325 129.96 42.1157 129.96 41.2218C129.96 40.4253 129.682 39.7542 129.124 39.2099C128.569 38.6656 127.641 38.1597 126.346 37.6921C122.821 36.4104 121.06 34.5327 121.06 32.0635C121.06 30.4499 121.678 29.1268 122.914 28.0973C124.145 27.0662 125.788 26.5515 127.842 26.5515C129.674 26.5515 131.196 26.8627 132.411 27.4837L131.605 30.0472C130.47 29.4454 129.187 29.1445 127.752 29.1445C126.617 29.1445 125.73 29.4174 125.095 29.9602C124.558 30.4455 124.289 31.0369 124.289 31.7376C124.289 32.5134 124.596 33.155 125.213 33.6595C125.75 34.1256 126.726 34.63 128.142 35.1743C129.874 35.8543 131.146 36.6493 131.965 37.5609C132.78 38.4695 133.187 39.6067 133.187 40.9637Z" fill="white"/>
<path d="M143.851 34.6743H140.296V41.5463C140.296 43.2942 140.922 44.1674 142.178 44.1674C142.754 44.1674 143.232 44.1187 143.611 44.0213L143.7 46.4094C143.064 46.6409 142.228 46.7575 141.192 46.7575C139.918 46.7575 138.922 46.3784 138.204 45.6217C137.488 44.8636 137.128 43.5921 137.128 41.8059V34.6713H135.01V32.3113H137.128V29.7197L140.296 28.7875V32.3113H143.851V34.6743Z" fill="white"/>
<path d="M159.891 39.2748C159.891 41.4504 159.253 43.2367 157.979 44.6335C156.643 46.0716 154.87 46.7885 152.66 46.7885C150.53 46.7885 148.834 46.0996 147.57 44.722C146.305 43.3443 145.672 41.6053 145.672 39.5093C145.672 37.316 146.323 35.5195 147.629 34.1226C148.931 32.7243 150.689 32.0252 152.899 32.0252C155.029 32.0252 156.743 32.714 158.037 34.0931C159.274 35.431 159.891 37.1582 159.891 39.2748ZM156.545 39.3766C156.545 38.0712 156.259 36.9517 155.68 36.018C155.004 34.8882 154.037 34.3247 152.784 34.3247C151.488 34.3247 150.503 34.8896 149.827 36.018C149.247 36.9532 148.961 38.0904 148.961 39.4356C148.961 40.741 149.247 41.8605 149.827 42.7927C150.524 43.9225 151.498 44.486 152.756 44.486C153.987 44.486 154.954 43.9107 155.651 42.7632C156.246 41.8118 156.545 40.6805 156.545 39.3766Z" fill="white"/>
<path d="M170.375 35.0799C170.056 35.0224 169.716 34.9929 169.359 34.9929C168.224 34.9929 167.347 35.4103 166.729 36.2467C166.192 36.9842 165.923 37.9164 165.923 39.0418V46.4684H162.699L162.73 36.7718C162.73 35.1404 162.689 33.6551 162.609 32.3158H165.418L165.536 35.0239H165.625C165.965 34.0932 166.503 33.3439 167.238 32.7819C167.956 32.276 168.732 32.0237 169.569 32.0237C169.867 32.0237 170.136 32.0444 170.375 32.0813V35.0799Z" fill="white"/>
<path d="M184.8 38.7217C184.8 39.2851 184.762 39.7601 184.682 40.148H175.006C175.044 41.5463 175.511 42.6157 176.41 43.3532C177.225 44.0125 178.28 44.3429 179.575 44.3429C181.007 44.3429 182.315 44.1202 183.49 43.6732L183.995 45.8562C182.622 46.4403 181 46.7309 179.129 46.7309C176.877 46.7309 175.11 46.0849 173.825 44.7942C172.542 43.5036 171.899 41.7705 171.899 39.5963C171.899 37.462 172.496 35.6846 173.693 34.2672C174.946 32.7538 176.638 31.9971 178.768 31.9971C180.861 31.9971 182.445 32.7538 183.52 34.2672C184.372 35.4693 184.8 36.9561 184.8 38.7217ZM181.725 37.906C181.746 36.9738 181.535 36.1684 181.098 35.4885C180.54 34.6138 179.682 34.1772 178.528 34.1772C177.474 34.1772 176.616 34.6035 175.961 35.459C175.424 36.1389 175.104 36.9546 175.006 37.9045H181.725V37.906Z" fill="white"/>
<path d="M74.2074 15.1108H72.8778C72.8267 14.8267 72.7315 14.5767 72.5923 14.3608C72.4531 14.1449 72.2827 13.9616 72.081 13.8111C71.8793 13.6605 71.6534 13.5469 71.4034 13.4702C71.1563 13.3935 70.8935 13.3551 70.6151 13.3551C70.1122 13.3551 69.6619 13.4815 69.2642 13.7344C68.8693 13.9872 68.5568 14.358 68.3267 14.8466C68.0994 15.3352 67.9858 15.9318 67.9858 16.6364C67.9858 17.3466 68.0994 17.946 68.3267 18.4347C68.5568 18.9233 68.8707 19.2926 69.2685 19.5426C69.6662 19.7926 70.1136 19.9176 70.6108 19.9176C70.8864 19.9176 71.1477 19.8807 71.3949 19.8068C71.6449 19.7301 71.8707 19.6179 72.0724 19.4702C72.2741 19.3224 72.4446 19.142 72.5838 18.929C72.7259 18.7131 72.8239 18.4659 72.8778 18.1875L74.2074 18.1918C74.1364 18.6207 73.9986 19.0156 73.794 19.3764C73.5923 19.7344 73.3324 20.044 73.0142 20.3054C72.6989 20.5639 72.3381 20.7642 71.9318 20.9062C71.5256 21.0483 71.0824 21.1193 70.6023 21.1193C69.8466 21.1193 69.1733 20.9403 68.5824 20.5824C67.9915 20.2216 67.5256 19.706 67.1847 19.0355C66.8466 18.3651 66.6776 17.5653 66.6776 16.6364C66.6776 15.7045 66.848 14.9048 67.1889 14.2372C67.5298 13.5668 67.9957 13.0526 68.5866 12.6946C69.1776 12.3338 69.8494 12.1534 70.6023 12.1534C71.0653 12.1534 71.4972 12.2202 71.8977 12.3537C72.3011 12.4844 72.6634 12.6776 72.9844 12.9332C73.3054 13.1861 73.571 13.4957 73.7812 13.8622C73.9915 14.2259 74.1335 14.642 74.2074 15.1108ZM78.4379 21.1321C77.8242 21.1321 77.2887 20.9915 76.8313 20.7102C76.3739 20.429 76.0188 20.0355 75.766 19.5298C75.5131 19.0241 75.3867 18.4332 75.3867 17.7571C75.3867 17.0781 75.5131 16.4844 75.766 15.9759C76.0188 15.4673 76.3739 15.0724 76.8313 14.7912C77.2887 14.5099 77.8242 14.3693 78.4379 14.3693C79.0515 14.3693 79.587 14.5099 80.0444 14.7912C80.5018 15.0724 80.8569 15.4673 81.1097 15.9759C81.3626 16.4844 81.489 17.0781 81.489 17.7571C81.489 18.4332 81.3626 19.0241 81.1097 19.5298C80.8569 20.0355 80.5018 20.429 80.0444 20.7102C79.587 20.9915 79.0515 21.1321 78.4379 21.1321ZM78.4421 20.0625C78.8398 20.0625 79.1694 19.9574 79.4308 19.7472C79.6921 19.5369 79.8853 19.2571 80.0103 18.9077C80.1381 18.5582 80.2021 18.1733 80.2021 17.7528C80.2021 17.3352 80.1381 16.9517 80.0103 16.6023C79.8853 16.25 79.6921 15.9673 79.4308 15.7543C79.1694 15.5412 78.8398 15.4347 78.4421 15.4347C78.0415 15.4347 77.7092 15.5412 77.445 15.7543C77.1836 15.9673 76.989 16.25 76.8612 16.6023C76.7362 16.9517 76.6737 17.3352 76.6737 17.7528C76.6737 18.1733 76.7362 18.5582 76.8612 18.9077C76.989 19.2571 77.1836 19.5369 77.445 19.7472C77.7092 19.9574 78.0415 20.0625 78.4421 20.0625ZM82.9112 21V14.4545H84.1342V15.5199H84.2152C84.3516 15.1591 84.5746 14.8778 84.8842 14.6761C85.1939 14.4716 85.5646 14.3693 85.9964 14.3693C86.4339 14.3693 86.8004 14.4716 87.0959 14.6761C87.3942 14.8807 87.6143 15.1619 87.7564 15.5199H87.8246C87.9808 15.1705 88.2294 14.892 88.5703 14.6847C88.9112 14.4744 89.3175 14.3693 89.7891 14.3693C90.3828 14.3693 90.8672 14.5554 91.2422 14.9276C91.62 15.2997 91.8089 15.8608 91.8089 16.6108V21H90.5348V16.7301C90.5348 16.2869 90.4141 15.9659 90.1726 15.767C89.9311 15.5682 89.6428 15.4688 89.3075 15.4688C88.8928 15.4688 88.5703 15.5966 88.3402 15.8523C88.1101 16.1051 87.995 16.4304 87.995 16.8281V21H86.7251V16.6491C86.7251 16.294 86.6143 16.0085 86.3928 15.7926C86.1712 15.5767 85.8828 15.4688 85.5277 15.4688C85.2862 15.4688 85.0632 15.5327 84.8587 15.6605C84.657 15.7855 84.4936 15.9602 84.3686 16.1847C84.2464 16.4091 84.1854 16.669 84.1854 16.9645V21H82.9112ZM93.5167 21V14.4545H94.7908V21H93.5167ZM94.1602 13.4446C93.9386 13.4446 93.7482 13.3707 93.5891 13.223C93.4329 13.0724 93.3548 12.8935 93.3548 12.6861C93.3548 12.4759 93.4329 12.2969 93.5891 12.1491C93.7482 11.9986 93.9386 11.9233 94.1602 11.9233C94.3817 11.9233 94.5707 11.9986 94.7269 12.1491C94.886 12.2969 94.9656 12.4759 94.9656 12.6861C94.9656 12.8935 94.886 13.0724 94.7269 13.223C94.5707 13.3707 94.3817 13.4446 94.1602 13.4446ZM97.7791 17.1136V21H96.505V14.4545H97.728V15.5199H97.8089C97.9595 15.1733 98.1953 14.8949 98.5163 14.6847C98.8402 14.4744 99.2479 14.3693 99.7393 14.3693C100.185 14.3693 100.576 14.4631 100.911 14.6506C101.246 14.8352 101.506 15.1108 101.691 15.4773C101.876 15.8437 101.968 16.2969 101.968 16.8366V21H100.694V16.9901C100.694 16.5156 100.57 16.1449 100.323 15.8778C100.076 15.608 99.7365 15.473 99.3047 15.473C99.0092 15.473 98.7464 15.5369 98.5163 15.6648C98.2891 15.7926 98.1087 15.9801 97.9751 16.2273C97.8445 16.4716 97.7791 16.767 97.7791 17.1136ZM106.421 23.5909C105.901 23.5909 105.454 23.5227 105.079 23.3864C104.707 23.25 104.403 23.0696 104.167 22.8452C103.931 22.6207 103.755 22.375 103.638 22.108L104.734 21.6562C104.81 21.7812 104.913 21.9134 105.04 22.0526C105.171 22.1946 105.347 22.3153 105.569 22.4148C105.793 22.5142 106.082 22.5639 106.434 22.5639C106.917 22.5639 107.316 22.446 107.631 22.2102C107.947 21.9773 108.104 21.6051 108.104 21.0938V19.8068H108.023C107.947 19.946 107.836 20.1009 107.691 20.2713C107.549 20.4418 107.353 20.5895 107.103 20.7145C106.853 20.8395 106.528 20.902 106.127 20.902C105.61 20.902 105.144 20.7812 104.729 20.5398C104.317 20.2955 103.991 19.9361 103.749 19.4616C103.511 18.9844 103.391 18.3977 103.391 17.7017C103.391 17.0057 103.509 16.4091 103.745 15.9119C103.984 15.4148 104.31 15.0341 104.725 14.7699C105.14 14.5028 105.61 14.3693 106.136 14.3693C106.542 14.3693 106.87 14.4375 107.12 14.5739C107.37 14.7074 107.565 14.8636 107.704 15.0426C107.846 15.2216 107.955 15.3793 108.032 15.5156H108.126V14.4545H109.374V21.1449C109.374 21.7074 109.244 22.169 108.982 22.5298C108.721 22.8906 108.367 23.1577 107.921 23.331C107.478 23.5043 106.978 23.5909 106.421 23.5909ZM106.408 19.8452C106.775 19.8452 107.085 19.7599 107.337 19.5895C107.593 19.4162 107.786 19.169 107.917 18.848C108.05 18.5241 108.117 18.1364 108.117 17.6847C108.117 17.2443 108.052 16.8565 107.921 16.5213C107.79 16.1861 107.599 15.9247 107.346 15.7372C107.093 15.5469 106.781 15.4517 106.408 15.4517C106.025 15.4517 105.705 15.5511 105.45 15.75C105.194 15.946 105.001 16.2131 104.87 16.5511C104.742 16.8892 104.678 17.267 104.678 17.6847C104.678 18.1136 104.744 18.4901 104.874 18.8139C105.005 19.1378 105.198 19.3906 105.454 19.5724C105.712 19.7543 106.031 19.8452 106.408 19.8452ZM119.121 14.5653C119.076 14.1619 118.888 13.8494 118.559 13.6278C118.229 13.4034 117.814 13.2912 117.314 13.2912C116.956 13.2912 116.647 13.348 116.385 13.4616C116.124 13.5724 115.921 13.7259 115.776 13.9219C115.634 14.1151 115.563 14.3352 115.563 14.5824C115.563 14.7898 115.611 14.9687 115.708 15.1193C115.807 15.2699 115.936 15.3963 116.096 15.4986C116.257 15.598 116.431 15.6818 116.615 15.75C116.8 15.8153 116.978 15.8693 117.148 15.9119L118 16.1335C118.279 16.2017 118.564 16.294 118.857 16.4105C119.15 16.527 119.421 16.6804 119.671 16.8707C119.921 17.0611 120.123 17.2969 120.276 17.5781C120.432 17.8594 120.51 18.196 120.51 18.5881C120.51 19.0824 120.382 19.5213 120.127 19.9048C119.874 20.2884 119.506 20.5909 119.023 20.8125C118.543 21.0341 117.962 21.1449 117.28 21.1449C116.627 21.1449 116.061 21.0412 115.584 20.8338C115.107 20.6264 114.733 20.3324 114.463 19.9517C114.194 19.5682 114.044 19.1136 114.016 18.5881H115.337C115.363 18.9034 115.465 19.1662 115.644 19.3764C115.826 19.5838 116.057 19.7386 116.338 19.8409C116.623 19.9403 116.934 19.9901 117.272 19.9901C117.644 19.9901 117.975 19.9318 118.265 19.8153C118.557 19.696 118.787 19.5312 118.955 19.321C119.123 19.108 119.206 18.8594 119.206 18.5753C119.206 18.3168 119.132 18.1051 118.985 17.9403C118.84 17.7756 118.642 17.6392 118.392 17.5312C118.145 17.4233 117.865 17.3281 117.553 17.2457L116.522 16.9645C115.823 16.7741 115.269 16.4943 114.86 16.125C114.453 15.7557 114.25 15.267 114.25 14.6591C114.25 14.1562 114.387 13.7173 114.659 13.3423C114.932 12.9673 115.301 12.6761 115.767 12.4688C116.233 12.2585 116.759 12.1534 117.344 12.1534C117.935 12.1534 118.456 12.2571 118.908 12.4645C119.363 12.6719 119.721 12.9574 119.982 13.321C120.243 13.6818 120.38 14.0966 120.391 14.5653H119.121ZM124.739 21.1321C124.125 21.1321 123.589 20.9915 123.132 20.7102C122.675 20.429 122.32 20.0355 122.067 19.5298C121.814 19.0241 121.688 18.4332 121.688 17.7571C121.688 17.0781 121.814 16.4844 122.067 15.9759C122.32 15.4673 122.675 15.0724 123.132 14.7912C123.589 14.5099 124.125 14.3693 124.739 14.3693C125.352 14.3693 125.888 14.5099 126.345 14.7912C126.803 15.0724 127.158 15.4673 127.411 15.9759C127.663 16.4844 127.79 17.0781 127.79 17.7571C127.79 18.4332 127.663 19.0241 127.411 19.5298C127.158 20.0355 126.803 20.429 126.345 20.7102C125.888 20.9915 125.352 21.1321 124.739 21.1321ZM124.743 20.0625C125.141 20.0625 125.47 19.9574 125.732 19.7472C125.993 19.5369 126.186 19.2571 126.311 18.9077C126.439 18.5582 126.503 18.1733 126.503 17.7528C126.503 17.3352 126.439 16.9517 126.311 16.6023C126.186 16.25 125.993 15.9673 125.732 15.7543C125.47 15.5412 125.141 15.4347 124.743 15.4347C124.342 15.4347 124.01 15.5412 123.746 15.7543C123.484 15.9673 123.29 16.25 123.162 16.6023C123.037 16.9517 122.974 17.3352 122.974 17.7528C122.974 18.1733 123.037 18.5582 123.162 18.9077C123.29 19.2571 123.484 19.5369 123.746 19.7472C124.01 19.9574 124.342 20.0625 124.743 20.0625ZM131.969 21.1321C131.355 21.1321 130.82 20.9915 130.363 20.7102C129.905 20.429 129.55 20.0355 129.297 19.5298C129.044 19.0241 128.918 18.4332 128.918 17.7571C128.918 17.0781 129.044 16.4844 129.297 15.9759C129.55 15.4673 129.905 15.0724 130.363 14.7912C130.82 14.5099 131.355 14.3693 131.969 14.3693C132.583 14.3693 133.118 14.5099 133.576 14.7912C134.033 15.0724 134.388 15.4673 134.641 15.9759C134.894 16.4844 135.02 17.0781 135.02 17.7571C135.02 18.4332 134.894 19.0241 134.641 19.5298C134.388 20.0355 134.033 20.429 133.576 20.7102C133.118 20.9915 132.583 21.1321 131.969 21.1321ZM131.973 20.0625C132.371 20.0625 132.701 19.9574 132.962 19.7472C133.223 19.5369 133.417 19.2571 133.542 18.9077C133.669 18.5582 133.733 18.1733 133.733 17.7528C133.733 17.3352 133.669 16.9517 133.542 16.6023C133.417 16.25 133.223 15.9673 132.962 15.7543C132.701 15.5412 132.371 15.4347 131.973 15.4347C131.573 15.4347 131.24 15.5412 130.976 15.7543C130.715 15.9673 130.52 16.25 130.392 16.6023C130.267 16.9517 130.205 17.3352 130.205 17.7528C130.205 18.1733 130.267 18.5582 130.392 18.9077C130.52 19.2571 130.715 19.5369 130.976 19.7472C131.24 19.9574 131.573 20.0625 131.973 20.0625ZM137.717 17.1136V21H136.442V14.4545H137.665V15.5199H137.746C137.897 15.1733 138.133 14.8949 138.454 14.6847C138.778 14.4744 139.185 14.3693 139.677 14.3693C140.123 14.3693 140.513 14.4631 140.849 14.6506C141.184 14.8352 141.444 15.1108 141.629 15.4773C141.813 15.8437 141.906 16.2969 141.906 16.8366V21H140.631V16.9901C140.631 16.5156 140.508 16.1449 140.261 15.8778C140.013 15.608 139.674 15.473 139.242 15.473C138.947 15.473 138.684 15.5369 138.454 15.6648C138.227 15.7926 138.046 15.9801 137.913 16.2273C137.782 16.4716 137.717 16.767 137.717 17.1136ZM149.846 14.4545V15.4773H146.27V14.4545H149.846ZM147.229 12.8864H148.503V19.0781C148.503 19.3253 148.54 19.5114 148.614 19.6364C148.688 19.7585 148.783 19.8423 148.9 19.8878C149.019 19.9304 149.148 19.9517 149.287 19.9517C149.39 19.9517 149.479 19.9446 149.556 19.9304C149.632 19.9162 149.692 19.9048 149.735 19.8963L149.965 20.9489C149.891 20.9773 149.786 21.0057 149.65 21.0341C149.513 21.0653 149.343 21.0824 149.138 21.0852C148.803 21.0909 148.49 21.0312 148.201 20.9062C147.911 20.7812 147.676 20.5881 147.498 20.3267C147.319 20.0653 147.229 19.7372 147.229 19.3423V12.8864ZM153.942 21.1321C153.328 21.1321 152.793 20.9915 152.335 20.7102C151.878 20.429 151.523 20.0355 151.27 19.5298C151.017 19.0241 150.891 18.4332 150.891 17.7571C150.891 17.0781 151.017 16.4844 151.27 15.9759C151.523 15.4673 151.878 15.0724 152.335 14.7912C152.793 14.5099 153.328 14.3693 153.942 14.3693C154.555 14.3693 155.091 14.5099 155.548 14.7912C156.006 15.0724 156.361 15.4673 156.614 15.9759C156.866 16.4844 156.993 17.0781 156.993 17.7571C156.993 18.4332 156.866 19.0241 156.614 19.5298C156.361 20.0355 156.006 20.429 155.548 20.7102C155.091 20.9915 154.555 21.1321 153.942 21.1321ZM153.946 20.0625C154.344 20.0625 154.673 19.9574 154.935 19.7472C155.196 19.5369 155.389 19.2571 155.514 18.9077C155.642 18.5582 155.706 18.1733 155.706 17.7528C155.706 17.3352 155.642 16.9517 155.514 16.6023C155.389 16.25 155.196 15.9673 154.935 15.7543C154.673 15.5412 154.344 15.4347 153.946 15.4347C153.545 15.4347 153.213 15.5412 152.949 15.7543C152.688 15.9673 152.493 16.25 152.365 16.6023C152.24 16.9517 152.178 17.3352 152.178 17.7528C152.178 18.1733 152.24 18.5582 152.365 18.9077C152.493 19.2571 152.688 19.5369 152.949 19.7472C153.213 19.9574 153.545 20.0625 153.946 20.0625Z" fill="white"/>
</svg>
