<svg width="204" height="59" viewBox="0 0 204 59" fill="none" xmlns="http://www.w3.org/2000/svg">
<path d="M196.396 59H7.55371C3.40106 59 0 55.6794 0 51.625V7.375C0 3.32059 3.40106 7.56029e-07 7.55371 7.56029e-07H196.396C200.549 7.56029e-07 203.95 3.32059 203.95 7.375V51.625C203.95 55.6794 200.549 59 196.396 59Z" fill="black"/>
<path d="M196.396 1.18184C199.894 1.18184 202.74 3.96037 202.74 7.375V51.625C202.74 55.0396 199.894 57.8182 196.396 57.8182H7.55371C4.05634 57.8182 1.21048 55.0396 1.21048 51.625V7.375C1.21048 3.96037 4.05634 1.18184 7.55371 1.18184H196.396ZM196.396 7.56029e-07H7.55371C3.40106 7.56029e-07 0 3.32059 0 7.375V51.625C0 55.6794 3.40106 59 7.55371 59H196.396C200.549 59 203.95 55.6794 203.95 51.625V7.375C203.95 3.32059 200.549 7.56029e-07 196.396 7.56029e-07Z" fill="#A6A6A6"/>
<path d="M102.934 32.085C99.386 32.085 96.4872 34.7215 96.4872 38.3593C96.4872 41.9675 99.386 44.6317 102.934 44.6317C106.49 44.6317 109.389 41.9675 109.389 38.3593C109.389 34.7215 106.49 32.085 102.934 32.085ZM102.934 42.1611C100.987 42.1611 99.3123 40.592 99.3123 38.3593C99.3123 36.097 100.987 34.5556 102.934 34.5556C104.881 34.5556 106.564 36.097 106.564 38.3593C106.564 40.592 104.881 42.1611 102.934 42.1611ZM88.8674 32.085C85.3115 32.085 82.4203 34.7215 82.4203 38.3593C82.4203 41.9675 85.3115 44.6317 88.8674 44.6317C92.4214 44.6317 95.3145 41.9675 95.3145 38.3593C95.3145 34.7215 92.4214 32.085 88.8674 32.085ZM88.8674 42.1611C86.9186 42.1611 85.2379 40.592 85.2379 38.3593C85.2379 36.097 86.9186 34.5556 88.8674 34.5556C90.8144 34.5556 92.4894 36.097 92.4894 38.3593C92.4894 40.592 90.8144 42.1611 88.8674 42.1611ZM72.1284 34.008V36.6741H78.6492C78.4584 38.1638 77.9485 39.259 77.1667 40.0223C76.215 40.9442 74.7326 41.9675 72.1284 41.9675C68.1155 41.9675 64.9732 38.8054 64.9732 34.8875C64.9732 30.9695 68.1155 27.8075 72.1284 27.8075C74.2982 27.8075 75.8769 28.6353 77.0421 29.7084L78.9664 27.8296C77.3367 26.3103 75.1688 25.1433 72.1284 25.1433C66.6255 25.1433 62.0008 29.5148 62.0008 34.8875C62.0008 40.2602 66.6255 44.6317 72.1284 44.6317C75.1027 44.6317 77.3367 43.6803 79.0929 41.8956C80.8926 40.1385 81.4535 37.6678 81.4535 35.6729C81.4535 35.0534 81.4006 34.4837 81.3062 34.008H72.1284ZM140.576 36.0748C140.046 34.6718 138.408 32.085 135.073 32.085C131.769 32.085 129.017 34.6275 129.017 38.3593C129.017 41.8734 131.74 44.6317 135.391 44.6317C138.342 44.6317 140.046 42.8746 140.746 41.8513L138.556 40.4261C137.825 41.4697 136.83 42.1611 135.391 42.1611C133.961 42.1611 132.936 41.5213 132.279 40.2602L140.873 36.7884L140.576 36.0748ZM131.814 38.1638C131.74 35.7448 133.738 34.5058 135.17 34.5058C136.291 34.5058 137.243 35.0534 137.56 35.837L131.814 38.1638ZM124.829 44.25H127.654V25.8125H124.829V44.25ZM120.202 33.4825H120.108C119.473 32.7487 118.263 32.085 116.729 32.085C113.511 32.085 110.569 34.8432 110.569 38.3795C110.569 41.8956 113.511 44.6317 116.729 44.6317C118.263 44.6317 119.473 43.9624 120.108 43.2065H120.202V44.1062C120.202 46.5049 118.89 47.7937 116.773 47.7937C115.047 47.7937 113.976 46.5768 113.534 45.5536L111.077 46.5547C111.785 48.2178 113.661 50.2643 116.773 50.2643C120.085 50.2643 122.88 48.3616 122.88 43.7319V32.4666H120.202V33.4825ZM116.971 42.1611C115.024 42.1611 113.394 40.5699 113.394 38.3795C113.394 36.1689 115.024 34.5556 116.971 34.5556C118.89 34.5556 120.402 36.1689 120.402 38.3795C120.402 40.5699 118.89 42.1611 116.971 42.1611ZM153.803 25.8125H147.046V44.25H149.864V37.2641H153.803C156.932 37.2641 160.001 35.0534 160.001 31.5374C160.001 28.0232 156.924 25.8125 153.803 25.8125ZM153.876 34.6994H149.864V28.3772H153.876C155.98 28.3772 157.181 30.0827 157.181 31.5374C157.181 32.9644 155.98 34.6994 153.876 34.6994ZM171.293 32.0499C169.258 32.0499 167.141 32.9276 166.27 34.8727L168.77 35.896C169.309 34.8727 170.298 34.5408 171.344 34.5408C172.806 34.5408 174.288 35.3982 174.311 36.9119V37.1055C173.801 36.8179 172.71 36.392 171.367 36.392C168.674 36.392 165.93 37.8393 165.93 40.5404C165.93 43.011 168.136 44.6022 170.615 44.6022C172.511 44.6022 173.558 43.767 174.215 42.7953H174.311V44.2205H177.032V37.1479C177.032 33.8789 174.532 32.0499 171.293 32.0499ZM170.954 42.1537C170.032 42.1537 168.748 41.7075 168.748 40.592C168.748 39.165 170.349 38.6174 171.735 38.6174C172.976 38.6174 173.558 38.8847 174.311 39.2369C174.09 40.9442 172.585 42.1537 170.954 42.1537ZM186.947 32.4537L183.708 40.4464H183.612L180.263 32.4537H177.225L182.256 43.6232L179.385 49.8384H182.329L190.081 32.4537H186.947ZM161.549 44.25H164.374V25.8125H161.549V44.25Z" fill="white"/>
<path d="M15.7646 11.1196C15.3208 11.5732 15.064 12.2793 15.064 13.1938V45.8135C15.064 46.728 15.3208 47.4341 15.7646 47.8877L15.8741 47.9873L34.596 29.7157V29.2843L15.8741 11.0127L15.7646 11.1196Z" fill="url(#paint0_linear_2_33)"/>
<path d="M40.8296 35.8093L34.5959 29.7157V29.2842L40.8372 23.1907L40.9769 23.2699L48.3682 27.376C50.4776 28.5412 50.4776 30.4587 48.3682 31.6313L40.9769 35.73L40.8296 35.8093Z" fill="url(#paint1_linear_2_33)"/>
<path d="M40.9769 35.73L34.5959 29.5L15.7646 47.8877C16.4652 48.6068 17.6077 48.6934 18.9069 47.9744L40.9769 35.73Z" fill="url(#paint2_linear_2_33)"/>
<path d="M40.9769 23.27L18.9069 11.0256C17.6077 10.3139 16.4652 10.4006 15.7646 11.1197L34.5959 29.5L40.9769 23.27Z" fill="url(#paint3_linear_2_33)"/>
<path d="M70.2074 14.1108H68.8778C68.8267 13.8267 68.7315 13.5767 68.5923 13.3608C68.4531 13.1449 68.2827 12.9616 68.081 12.8111C67.8793 12.6605 67.6534 12.5469 67.4034 12.4702C67.1563 12.3935 66.8935 12.3551 66.6151 12.3551C66.1122 12.3551 65.6619 12.4815 65.2642 12.7344C64.8693 12.9872 64.5568 13.358 64.3267 13.8466C64.0994 14.3352 63.9858 14.9318 63.9858 15.6364C63.9858 16.3466 64.0994 16.946 64.3267 17.4347C64.5568 17.9233 64.8707 18.2926 65.2685 18.5426C65.6662 18.7926 66.1136 18.9176 66.6108 18.9176C66.8864 18.9176 67.1477 18.8807 67.3949 18.8068C67.6449 18.7301 67.8707 18.6179 68.0724 18.4702C68.2741 18.3224 68.4446 18.142 68.5838 17.929C68.7259 17.7131 68.8239 17.4659 68.8778 17.1875L70.2074 17.1918C70.1364 17.6207 69.9986 18.0156 69.794 18.3764C69.5923 18.7344 69.3324 19.044 69.0142 19.3054C68.6989 19.5639 68.3381 19.7642 67.9318 19.9062C67.5256 20.0483 67.0824 20.1193 66.6023 20.1193C65.8466 20.1193 65.1733 19.9403 64.5824 19.5824C63.9915 19.2216 63.5256 18.706 63.1847 18.0355C62.8466 17.3651 62.6776 16.5653 62.6776 15.6364C62.6776 14.7045 62.848 13.9048 63.1889 13.2372C63.5298 12.5668 63.9957 12.0526 64.5866 11.6946C65.1776 11.3338 65.8494 11.1534 66.6023 11.1534C67.0653 11.1534 67.4972 11.2202 67.8977 11.3537C68.3011 11.4844 68.6634 11.6776 68.9844 11.9332C69.3054 12.1861 69.571 12.4957 69.7812 12.8622C69.9915 13.2259 70.1335 13.642 70.2074 14.1108ZM74.4379 20.1321C73.8242 20.1321 73.2887 19.9915 72.8313 19.7102C72.3739 19.429 72.0188 19.0355 71.766 18.5298C71.5131 18.0241 71.3867 17.4332 71.3867 16.7571C71.3867 16.0781 71.5131 15.4844 71.766 14.9759C72.0188 14.4673 72.3739 14.0724 72.8313 13.7912C73.2887 13.5099 73.8242 13.3693 74.4379 13.3693C75.0515 13.3693 75.587 13.5099 76.0444 13.7912C76.5018 14.0724 76.8569 14.4673 77.1097 14.9759C77.3626 15.4844 77.489 16.0781 77.489 16.7571C77.489 17.4332 77.3626 18.0241 77.1097 18.5298C76.8569 19.0355 76.5018 19.429 76.0444 19.7102C75.587 19.9915 75.0515 20.1321 74.4379 20.1321ZM74.4421 19.0625C74.8398 19.0625 75.1694 18.9574 75.4308 18.7472C75.6921 18.5369 75.8853 18.2571 76.0103 17.9077C76.1381 17.5582 76.2021 17.1733 76.2021 16.7528C76.2021 16.3352 76.1381 15.9517 76.0103 15.6023C75.8853 15.25 75.6921 14.9673 75.4308 14.7543C75.1694 14.5412 74.8398 14.4347 74.4421 14.4347C74.0415 14.4347 73.7092 14.5412 73.445 14.7543C73.1836 14.9673 72.989 15.25 72.8612 15.6023C72.7362 15.9517 72.6737 16.3352 72.6737 16.7528C72.6737 17.1733 72.7362 17.5582 72.8612 17.9077C72.989 18.2571 73.1836 18.5369 73.445 18.7472C73.7092 18.9574 74.0415 19.0625 74.4421 19.0625ZM78.9112 20V13.4545H80.1342V14.5199H80.2152C80.3516 14.1591 80.5746 13.8778 80.8842 13.6761C81.1939 13.4716 81.5646 13.3693 81.9964 13.3693C82.4339 13.3693 82.8004 13.4716 83.0959 13.6761C83.3942 13.8807 83.6143 14.1619 83.7564 14.5199H83.8246C83.9808 14.1705 84.2294 13.892 84.5703 13.6847C84.9112 13.4744 85.3175 13.3693 85.7891 13.3693C86.3828 13.3693 86.8672 13.5554 87.2422 13.9276C87.62 14.2997 87.8089 14.8608 87.8089 15.6108V20H86.5348V15.7301C86.5348 15.2869 86.4141 14.9659 86.1726 14.767C85.9311 14.5682 85.6428 14.4688 85.3075 14.4688C84.8928 14.4688 84.5703 14.5966 84.3402 14.8523C84.1101 15.1051 83.995 15.4304 83.995 15.8281V20H82.7251V15.6491C82.7251 15.294 82.6143 15.0085 82.3928 14.7926C82.1712 14.5767 81.8828 14.4688 81.5277 14.4688C81.2862 14.4688 81.0632 14.5327 80.8587 14.6605C80.657 14.7855 80.4936 14.9602 80.3686 15.1847C80.2464 15.4091 80.1854 15.669 80.1854 15.9645V20H78.9112ZM89.5167 20V13.4545H90.7908V20H89.5167ZM90.1602 12.4446C89.9386 12.4446 89.7482 12.3707 89.5891 12.223C89.4329 12.0724 89.3548 11.8935 89.3548 11.6861C89.3548 11.4759 89.4329 11.2969 89.5891 11.1491C89.7482 10.9986 89.9386 10.9233 90.1602 10.9233C90.3817 10.9233 90.5707 10.9986 90.7269 11.1491C90.886 11.2969 90.9656 11.4759 90.9656 11.6861C90.9656 11.8935 90.886 12.0724 90.7269 12.223C90.5707 12.3707 90.3817 12.4446 90.1602 12.4446ZM93.7791 16.1136V20H92.505V13.4545H93.728V14.5199H93.8089C93.9595 14.1733 94.1953 13.8949 94.5163 13.6847C94.8402 13.4744 95.2479 13.3693 95.7393 13.3693C96.1854 13.3693 96.576 13.4631 96.9112 13.6506C97.2464 13.8352 97.5064 14.1108 97.6911 14.4773C97.8757 14.8437 97.968 15.2969 97.968 15.8366V20H96.6939V15.9901C96.6939 15.5156 96.5703 15.1449 96.3232 14.8778C96.076 14.608 95.7365 14.473 95.3047 14.473C95.0092 14.473 94.7464 14.5369 94.5163 14.6648C94.2891 14.7926 94.1087 14.9801 93.9751 15.2273C93.8445 15.4716 93.7791 15.767 93.7791 16.1136ZM102.421 22.5909C101.901 22.5909 101.454 22.5227 101.079 22.3864C100.707 22.25 100.403 22.0696 100.167 21.8452C99.9311 21.6207 99.755 21.375 99.6385 21.108L100.734 20.6562C100.81 20.7812 100.913 20.9134 101.04 21.0526C101.171 21.1946 101.347 21.3153 101.569 21.4148C101.793 21.5142 102.082 21.5639 102.434 21.5639C102.917 21.5639 103.316 21.446 103.631 21.2102C103.947 20.9773 104.104 20.6051 104.104 20.0938V18.8068H104.023C103.947 18.946 103.836 19.1009 103.691 19.2713C103.549 19.4418 103.353 19.5895 103.103 19.7145C102.853 19.8395 102.528 19.902 102.127 19.902C101.61 19.902 101.144 19.7812 100.729 19.5398C100.317 19.2955 99.9908 18.9361 99.7493 18.4616C99.5107 17.9844 99.3913 17.3977 99.3913 16.7017C99.3913 16.0057 99.5092 15.4091 99.745 14.9119C99.9837 14.4148 100.31 14.0341 100.725 13.7699C101.14 13.5028 101.61 13.3693 102.136 13.3693C102.542 13.3693 102.87 13.4375 103.12 13.5739C103.37 13.7074 103.565 13.8636 103.704 14.0426C103.846 14.2216 103.955 14.3793 104.032 14.5156H104.126V13.4545H105.374V20.1449C105.374 20.7074 105.244 21.169 104.982 21.5298C104.721 21.8906 104.367 22.1577 103.921 22.331C103.478 22.5043 102.978 22.5909 102.421 22.5909ZM102.408 18.8452C102.775 18.8452 103.085 18.7599 103.337 18.5895C103.593 18.4162 103.786 18.169 103.917 17.848C104.05 17.5241 104.117 17.1364 104.117 16.6847C104.117 16.2443 104.052 15.8565 103.921 15.5213C103.79 15.1861 103.599 14.9247 103.346 14.7372C103.093 14.5469 102.781 14.4517 102.408 14.4517C102.025 14.4517 101.705 14.5511 101.45 14.75C101.194 14.946 101.001 15.2131 100.87 15.5511C100.742 15.8892 100.678 16.267 100.678 16.6847C100.678 17.1136 100.744 17.4901 100.874 17.8139C101.005 18.1378 101.198 18.3906 101.454 18.5724C101.712 18.7543 102.031 18.8452 102.408 18.8452ZM115.121 13.5653C115.076 13.1619 114.888 12.8494 114.559 12.6278C114.229 12.4034 113.814 12.2912 113.314 12.2912C112.956 12.2912 112.647 12.348 112.385 12.4616C112.124 12.5724 111.921 12.7259 111.776 12.9219C111.634 13.1151 111.563 13.3352 111.563 13.5824C111.563 13.7898 111.611 13.9687 111.708 14.1193C111.807 14.2699 111.936 14.3963 112.096 14.4986C112.257 14.598 112.431 14.6818 112.615 14.75C112.8 14.8153 112.978 14.8693 113.148 14.9119L114 15.1335C114.279 15.2017 114.564 15.294 114.857 15.4105C115.15 15.527 115.421 15.6804 115.671 15.8707C115.921 16.0611 116.123 16.2969 116.276 16.5781C116.432 16.8594 116.51 17.196 116.51 17.5881C116.51 18.0824 116.382 18.5213 116.127 18.9048C115.874 19.2884 115.506 19.5909 115.023 19.8125C114.543 20.0341 113.962 20.1449 113.28 20.1449C112.627 20.1449 112.061 20.0412 111.584 19.8338C111.107 19.6264 110.733 19.3324 110.463 18.9517C110.194 18.5682 110.044 18.1136 110.016 17.5881H111.337C111.363 17.9034 111.465 18.1662 111.644 18.3764C111.826 18.5838 112.057 18.7386 112.338 18.8409C112.623 18.9403 112.934 18.9901 113.272 18.9901C113.644 18.9901 113.975 18.9318 114.265 18.8153C114.557 18.696 114.787 18.5312 114.955 18.321C115.123 18.108 115.206 17.8594 115.206 17.5753C115.206 17.3168 115.132 17.1051 114.985 16.9403C114.84 16.7756 114.642 16.6392 114.392 16.5312C114.145 16.4233 113.865 16.3281 113.553 16.2457L112.522 15.9645C111.823 15.7741 111.269 15.4943 110.86 15.125C110.453 14.7557 110.25 14.267 110.25 13.6591C110.25 13.1562 110.387 12.7173 110.659 12.3423C110.932 11.9673 111.301 11.6761 111.767 11.4688C112.233 11.2585 112.759 11.1534 113.344 11.1534C113.935 11.1534 114.456 11.2571 114.908 11.4645C115.363 11.6719 115.721 11.9574 115.982 12.321C116.243 12.6818 116.38 13.0966 116.391 13.5653H115.121ZM120.739 20.1321C120.125 20.1321 119.589 19.9915 119.132 19.7102C118.675 19.429 118.32 19.0355 118.067 18.5298C117.814 18.0241 117.688 17.4332 117.688 16.7571C117.688 16.0781 117.814 15.4844 118.067 14.9759C118.32 14.4673 118.675 14.0724 119.132 13.7912C119.589 13.5099 120.125 13.3693 120.739 13.3693C121.352 13.3693 121.888 13.5099 122.345 13.7912C122.803 14.0724 123.158 14.4673 123.411 14.9759C123.663 15.4844 123.79 16.0781 123.79 16.7571C123.79 17.4332 123.663 18.0241 123.411 18.5298C123.158 19.0355 122.803 19.429 122.345 19.7102C121.888 19.9915 121.352 20.1321 120.739 20.1321ZM120.743 19.0625C121.141 19.0625 121.47 18.9574 121.732 18.7472C121.993 18.5369 122.186 18.2571 122.311 17.9077C122.439 17.5582 122.503 17.1733 122.503 16.7528C122.503 16.3352 122.439 15.9517 122.311 15.6023C122.186 15.25 121.993 14.9673 121.732 14.7543C121.47 14.5412 121.141 14.4347 120.743 14.4347C120.342 14.4347 120.01 14.5412 119.746 14.7543C119.484 14.9673 119.29 15.25 119.162 15.6023C119.037 15.9517 118.974 16.3352 118.974 16.7528C118.974 17.1733 119.037 17.5582 119.162 17.9077C119.29 18.2571 119.484 18.5369 119.746 18.7472C120.01 18.9574 120.342 19.0625 120.743 19.0625ZM127.969 20.1321C127.355 20.1321 126.82 19.9915 126.363 19.7102C125.905 19.429 125.55 19.0355 125.297 18.5298C125.044 18.0241 124.918 17.4332 124.918 16.7571C124.918 16.0781 125.044 15.4844 125.297 14.9759C125.55 14.4673 125.905 14.0724 126.363 13.7912C126.82 13.5099 127.355 13.3693 127.969 13.3693C128.583 13.3693 129.118 13.5099 129.576 13.7912C130.033 14.0724 130.388 14.4673 130.641 14.9759C130.894 15.4844 131.02 16.0781 131.02 16.7571C131.02 17.4332 130.894 18.0241 130.641 18.5298C130.388 19.0355 130.033 19.429 129.576 19.7102C129.118 19.9915 128.583 20.1321 127.969 20.1321ZM127.973 19.0625C128.371 19.0625 128.701 18.9574 128.962 18.7472C129.223 18.5369 129.417 18.2571 129.542 17.9077C129.669 17.5582 129.733 17.1733 129.733 16.7528C129.733 16.3352 129.669 15.9517 129.542 15.6023C129.417 15.25 129.223 14.9673 128.962 14.7543C128.701 14.5412 128.371 14.4347 127.973 14.4347C127.573 14.4347 127.24 14.5412 126.976 14.7543C126.715 14.9673 126.52 15.25 126.392 15.6023C126.267 15.9517 126.205 16.3352 126.205 16.7528C126.205 17.1733 126.267 17.5582 126.392 17.9077C126.52 18.2571 126.715 18.5369 126.976 18.7472C127.24 18.9574 127.573 19.0625 127.973 19.0625ZM133.717 16.1136V20H132.442V13.4545H133.665V14.5199H133.746C133.897 14.1733 134.133 13.8949 134.454 13.6847C134.778 13.4744 135.185 13.3693 135.677 13.3693C136.123 13.3693 136.513 13.4631 136.849 13.6506C137.184 13.8352 137.444 14.1108 137.629 14.4773C137.813 14.8437 137.906 15.2969 137.906 15.8366V20H136.631V15.9901C136.631 15.5156 136.508 15.1449 136.261 14.8778C136.013 14.608 135.674 14.473 135.242 14.473C134.947 14.473 134.684 14.5369 134.454 14.6648C134.227 14.7926 134.046 14.9801 133.913 15.2273C133.782 15.4716 133.717 15.767 133.717 16.1136ZM145.846 13.4545V14.4773H142.27V13.4545H145.846ZM143.229 11.8864H144.503V18.0781C144.503 18.3253 144.54 18.5114 144.614 18.6364C144.688 18.7585 144.783 18.8423 144.9 18.8878C145.019 18.9304 145.148 18.9517 145.287 18.9517C145.39 18.9517 145.479 18.9446 145.556 18.9304C145.632 18.9162 145.692 18.9048 145.735 18.8963L145.965 19.9489C145.891 19.9773 145.786 20.0057 145.65 20.0341C145.513 20.0653 145.343 20.0824 145.138 20.0852C144.803 20.0909 144.49 20.0312 144.201 19.9062C143.911 19.7812 143.676 19.5881 143.498 19.3267C143.319 19.0653 143.229 18.7372 143.229 18.3423V11.8864ZM149.942 20.1321C149.328 20.1321 148.793 19.9915 148.335 19.7102C147.878 19.429 147.523 19.0355 147.27 18.5298C147.017 18.0241 146.891 17.4332 146.891 16.7571C146.891 16.0781 147.017 15.4844 147.27 14.9759C147.523 14.4673 147.878 14.0724 148.335 13.7912C148.793 13.5099 149.328 13.3693 149.942 13.3693C150.555 13.3693 151.091 13.5099 151.548 13.7912C152.006 14.0724 152.361 14.4673 152.614 14.9759C152.866 15.4844 152.993 16.0781 152.993 16.7571C152.993 17.4332 152.866 18.0241 152.614 18.5298C152.361 19.0355 152.006 19.429 151.548 19.7102C151.091 19.9915 150.555 20.1321 149.942 20.1321ZM149.946 19.0625C150.344 19.0625 150.673 18.9574 150.935 18.7472C151.196 18.5369 151.389 18.2571 151.514 17.9077C151.642 17.5582 151.706 17.1733 151.706 16.7528C151.706 16.3352 151.642 15.9517 151.514 15.6023C151.389 15.25 151.196 14.9673 150.935 14.7543C150.673 14.5412 150.344 14.4347 149.946 14.4347C149.545 14.4347 149.213 14.5412 148.949 14.7543C148.688 14.9673 148.493 15.25 148.365 15.6023C148.24 15.9517 148.178 16.3352 148.178 16.7528C148.178 17.1733 148.24 17.5582 148.365 17.9077C148.493 18.2571 148.688 18.5369 148.949 18.7472C149.213 18.9574 149.545 19.0625 149.946 19.0625Z" fill="white"/>
<defs>
<linearGradient id="paint0_linear_2_33" x1="32.9337" y1="46.1532" x2="8.18676" y2="20.8066" gradientUnits="userSpaceOnUse">
<stop stop-color="#00A0FF"/>
<stop offset="0.0066" stop-color="#00A1FF"/>
<stop offset="0.2601" stop-color="#00BEFF"/>
<stop offset="0.5122" stop-color="#00D2FF"/>
<stop offset="0.7604" stop-color="#00DFFF"/>
<stop offset="1" stop-color="#00E3FF"/>
</linearGradient>
<linearGradient id="paint1_linear_2_33" x1="51.115" y1="29.4979" x2="14.5597" y2="29.4979" gradientUnits="userSpaceOnUse">
<stop stop-color="#FFE000"/>
<stop offset="0.4087" stop-color="#FFBD00"/>
<stop offset="0.7754" stop-color="#FFA500"/>
<stop offset="1" stop-color="#FF9C00"/>
</linearGradient>
<linearGradient id="paint2_linear_2_33" x1="37.5071" y1="26.1132" x2="3.94827" y2="-8.2588" gradientUnits="userSpaceOnUse">
<stop stop-color="#FF3A44"/>
<stop offset="1" stop-color="#C31162"/>
</linearGradient>
<linearGradient id="paint3_linear_2_33" x1="11.0243" y1="58.7401" x2="26.0098" y2="43.3916" gradientUnits="userSpaceOnUse">
<stop stop-color="#32A071"/>
<stop offset="0.0685" stop-color="#2DA771"/>
<stop offset="0.4762" stop-color="#15CF74"/>
<stop offset="0.8009" stop-color="#06E775"/>
<stop offset="1" stop-color="#00F076"/>
</linearGradient>
</defs>
</svg>
