<svg fill="none" height="59" viewBox="0 0 204 59" width="204" xmlns="http://www.w3.org/2000/svg" xmlns:xlink="http://www.w3.org/1999/xlink"><linearGradient id="a" gradientUnits="userSpaceOnUse" x1="32.9337" x2="8.18676" y1="46.1532" y2="20.8066"><stop offset="0" stop-color="#00a0ff"/><stop offset=".0066" stop-color="#00a1ff"/><stop offset=".2601" stop-color="#00beff"/><stop offset=".5122" stop-color="#00d2ff"/><stop offset=".7604" stop-color="#00dfff"/><stop offset="1" stop-color="#00e3ff"/></linearGradient><linearGradient id="b" gradientUnits="userSpaceOnUse" x1="51.115" x2="14.5597" y1="29.4979" y2="29.4979"><stop offset="0" stop-color="#ffe000"/><stop offset=".4087" stop-color="#ffbd00"/><stop offset=".7754" stop-color="#ffa500"/><stop offset="1" stop-color="#ff9c00"/></linearGradient><linearGradient id="c" gradientUnits="userSpaceOnUse" x1="37.5071" x2="3.94827" y1="26.1132" y2="-8.2588"><stop offset="0" stop-color="#ff3a44"/><stop offset="1" stop-color="#c31162"/></linearGradient><linearGradient id="d" gradientUnits="userSpaceOnUse" x1="11.0243" x2="26.0098" y1="58.7401" y2="43.3916"><stop offset="0" stop-color="#32a071"/><stop offset=".0685" stop-color="#2da771"/><stop offset=".4762" stop-color="#15cf74"/><stop offset=".8009" stop-color="#06e775"/><stop offset="1" stop-color="#00f076"/></linearGradient><path d="m196.396 59h-188.84229c-4.15265 0-7.55371-3.3206-7.55371-7.375v-44.25c0-4.05441 3.40106-7.37499924 7.55371-7.37499924h188.84229c4.153 0 7.554 3.32058924 7.554 7.37499924v44.25c0 4.0544-3.401 7.375-7.554 7.375z" fill="#000"/><path d="m196.396 1.18184c3.498 0 6.344 2.77853 6.344 6.19316v44.25c0 3.4146-2.846 6.1932-6.344 6.1932h-188.84229c-3.49737 0-6.34323-2.7786-6.34323-6.1932v-44.25c0-3.41463 2.84586-6.19316 6.34323-6.19316zm0-1.18183924h-188.84229c-4.15265 0-7.55371 3.32058924-7.55371 7.37499924v44.25c0 4.0544 3.40106 7.375 7.55371 7.375h188.84229c4.153 0 7.554-3.3206 7.554-7.375v-44.25c0-4.05441-3.401-7.37499924-7.554-7.37499924z" fill="#a6a6a6"/><path d="m102.934 32.085c-3.548 0-6.4468 2.6365-6.4468 6.2743 0 3.6082 2.8988 6.2724 6.4468 6.2724 3.556 0 6.455-2.6642 6.455-6.2724 0-3.6378-2.899-6.2743-6.455-6.2743zm0 10.0761c-1.947 0-3.6217-1.5691-3.6217-3.8018 0-2.2623 1.6747-3.8037 3.6217-3.8037s3.63 1.5414 3.63 3.8037c0 2.2327-1.683 3.8018-3.63 3.8018zm-14.0666-10.0761c-3.5559 0-6.4471 2.6365-6.4471 6.2743 0 3.6082 2.8912 6.2724 6.4471 6.2724 3.554 0 6.4471-2.6642 6.4471-6.2724 0-3.6378-2.8931-6.2743-6.4471-6.2743zm0 10.0761c-1.9488 0-3.6295-1.5691-3.6295-3.8018 0-2.2623 1.6807-3.8037 3.6295-3.8037 1.947 0 3.622 1.5414 3.622 3.8037 0 2.2327-1.675 3.8018-3.622 3.8018zm-16.739-8.1531v2.6661h6.5208c-.1908 1.4897-.7007 2.5849-1.4825 3.3482-.9517.9219-2.4341 1.9452-5.0383 1.9452-4.0129 0-7.1552-3.1621-7.1552-7.08 0-3.918 3.1423-7.08 7.1552-7.08 2.1698 0 3.7485.8278 4.9137 1.9009l1.9243-1.8788c-1.6297-1.5193-3.7976-2.6863-6.838-2.6863-5.5029 0-10.1276 4.3715-10.1276 9.7442s4.6247 9.7442 10.1276 9.7442c2.9743 0 5.2083-.9514 6.9645-2.7361 1.7997-1.7571 2.3606-4.2278 2.3606-6.2227 0-.6195-.0529-1.1892-.1473-1.6649zm68.4476 2.0668c-.53-1.403-2.168-3.9898-5.503-3.9898-3.304 0-6.056 2.5425-6.056 6.2743 0 3.5141 2.723 6.2724 6.374 6.2724 2.951 0 4.655-1.7571 5.355-2.7804l-2.19-1.4252c-.731 1.0436-1.726 1.735-3.165 1.735-1.43 0-2.455-.6398-3.112-1.9009l8.594-3.4718zm-8.762 2.089c-.074-2.419 1.924-3.658 3.356-3.658 1.121 0 2.073.5476 2.39 1.3312zm-6.985 6.0862h2.825v-18.4375h-2.825zm-4.627-10.7675h-.094c-.635-.7338-1.845-1.3975-3.379-1.3975-3.218 0-6.16 2.7582-6.16 6.2945 0 3.5161 2.942 6.2522 6.16 6.2522 1.534 0 2.744-.6693 3.379-1.4252h.094v.8997c0 2.3987-1.312 3.6875-3.429 3.6875-1.726 0-2.797-1.2169-3.239-2.2401l-2.457 1.0011c.708 1.6631 2.584 3.7096 5.696 3.7096 3.312 0 6.107-1.9027 6.107-6.5324v-11.2653h-2.678zm-3.231 8.6786c-1.947 0-3.577-1.5912-3.577-3.7816 0-2.2106 1.63-3.8239 3.577-3.8239 1.919 0 3.431 1.6133 3.431 3.8239 0 2.1904-1.512 3.7816-3.431 3.7816zm36.832-16.3486h-6.757v18.4375h2.818v-6.9859h3.939c3.129 0 6.198-2.2107 6.198-5.7267 0-3.5142-3.077-5.7249-6.198-5.7249zm.073 8.8869h-4.012v-6.3222h4.012c2.104 0 3.305 1.7055 3.305 3.1602 0 1.427-1.201 3.162-3.305 3.162zm17.417-2.6495c-2.035 0-4.152.8777-5.023 2.8228l2.5 1.0233c.539-1.0233 1.528-1.3552 2.574-1.3552 1.462 0 2.944.8574 2.967 2.3711v.1936c-.51-.2876-1.601-.7135-2.944-.7135-2.693 0-5.437 1.4473-5.437 4.1484 0 2.4706 2.206 4.0618 4.685 4.0618 1.896 0 2.943-.8352 3.6-1.8069h.096v1.4252h2.721v-7.0726c0-3.269-2.5-5.098-5.739-5.098zm-.339 10.1038c-.922 0-2.206-.4462-2.206-1.5617 0-1.427 1.601-1.9746 2.987-1.9746 1.241 0 1.823.2673 2.576.6195-.221 1.7073-1.726 2.9168-3.357 2.9168zm15.993-9.7-3.239 7.9927h-.096l-3.349-7.9927h-3.038l5.031 11.1695-2.871 6.2152h2.944l7.752-17.3847zm-25.398 11.7963h2.825v-18.4375h-2.825z" fill="#fff"/><path d="m15.7646 11.1196c-.4438.4536-.7006 1.1597-.7006 2.0742v32.6197c0 .9145.2568 1.6206.7006 2.0742l.1095.0996 18.7219-18.2716v-.4314l-18.7219-18.2716z" fill="url(#a)"/><path d="m40.8296 35.8093-6.2337-6.0936v-.4315l6.2413-6.0935.1397.0792 7.3913 4.1061c2.1094 1.1652 2.1094 3.0827 0 4.2553l-7.3913 4.0987z" fill="url(#b)"/><path d="m40.9769 35.73-6.381-6.23-18.8313 18.3877c.7006.7191 1.8431.8057 3.1423.0867z" fill="url(#c)"/><path d="m40.9769 23.27-22.07-12.2444c-1.2992-.7117-2.4417-.625-3.1423.0941l18.8313 18.3803z" fill="url(#d)"/><path d="m70.2074 14.1108h-1.3296c-.0511-.2841-.1463-.5341-.2855-.75s-.3096-.3992-.5113-.5497c-.2017-.1506-.4276-.2642-.6776-.3409-.2471-.0767-.5099-.1151-.7883-.1151-.5029 0-.9532.1264-1.3509.3793-.3949.2528-.7074.6236-.9375 1.1122-.2273.4886-.3409 1.0852-.3409 1.7898 0 .7102.1136 1.3096.3409 1.7983.2301.4886.544.8579.9418 1.1079.3977.25.8451.375 1.3423.375.2756 0 .5369-.0369.7841-.1108.25-.0767.4758-.1889.6775-.3366.2017-.1478.3722-.3282.5114-.5412.1421-.2159.2401-.4631.294-.7415l1.3296.0043c-.071.4289-.2088.8238-.4134 1.1846-.2017.358-.4616.6676-.7798.929-.3153.2585-.6761.4588-1.0824.6008-.4062.1421-.8494.2131-1.3295.2131-.7557 0-1.429-.179-2.0199-.5369-.5909-.3608-1.0568-.8764-1.3977-1.5469-.3381-.6704-.5071-1.4702-.5071-2.3991 0-.9319.1704-1.7316.5113-2.3992.3409-.6704.8068-1.1846 1.3977-1.5426.591-.3608 1.2628-.5412 2.0157-.5412.463 0 .8949.0668 1.2954.2003.4034.1307.7657.3239 1.0867.5795.321.2529.5866.5625.7968.929.2103.3637.3523.7798.4262 1.2486zm4.2305 6.0213c-.6137 0-1.1492-.1406-1.6066-.4219-.4574-.2812-.8125-.6747-1.0653-1.1804-.2529-.5057-.3793-1.0966-.3793-1.7727 0-.679.1264-1.2727.3793-1.7812.2528-.5086.6079-.9035 1.0653-1.1847.4574-.2813.9929-.4219 1.6066-.4219.6136 0 1.1491.1406 1.6065.4219.4574.2812.8125.6761 1.0653 1.1847.2529.5085.3793 1.1022.3793 1.7812 0 .6761-.1264 1.267-.3793 1.7727-.2528.5057-.6079.8992-1.0653 1.1804-.4574.2813-.9929.4219-1.6065.4219zm.0042-1.0696c.3977 0 .7273-.1051.9887-.3153.2613-.2103.4545-.4901.5795-.8395.1278-.3495.1918-.7344.1918-1.1549 0-.4176-.064-.8011-.1918-1.1505-.125-.3523-.3182-.635-.5795-.848-.2614-.2131-.591-.3196-.9887-.3196-.4006 0-.7329.1065-.9971.3196-.2614.213-.456.4957-.5838.848-.125.3494-.1875.7329-.1875 1.1505 0 .4205.0625.8054.1875 1.1549.1278.3494.3224.6292.5838.8395.2642.2102.5965.3153.9971.3153zm4.4691.9375v-6.5455h1.223v1.0654h.081c.1364-.3608.3594-.6421.669-.8438.3097-.2045.6804-.3068 1.1122-.3068.4375 0 .804.1023 1.0995.3068.2983.2046.5184.4858.6605.8438h.0682c.1562-.3494.4048-.6279.7457-.8352.3409-.2103.7472-.3154 1.2188-.3154.5937 0 1.0781.1861 1.4531.5583.3778.3721.5667.9332.5667 1.6832v4.3892h-1.2741v-4.2699c0-.4432-.1207-.7642-.3622-.9631-.2415-.1988-.5298-.2982-.8651-.2982-.4147 0-.7372.1278-.9673.3835-.2301.2528-.3452.5781-.3452.9758v4.1719h-1.2699v-4.3509c0-.3551-.1108-.6406-.3323-.8565-.2216-.2159-.51-.3238-.8651-.3238-.2415 0-.4645.0639-.669.1917-.2017.125-.3651.2997-.4901.5242-.1222.2244-.1832.4843-.1832.7798v4.0355zm10.6055 0v-6.5455h1.2741v6.5455zm.6435-7.5554c-.2216 0-.412-.0739-.5711-.2216-.1562-.1506-.2343-.3295-.2343-.5369 0-.2102.0781-.3892.2343-.537.1591-.1505.3495-.2258.5711-.2258.2215 0 .4105.0753.5667.2258.1591.1478.2387.3268.2387.537 0 .2074-.0796.3863-.2387.5369-.1562.1477-.3452.2216-.5667.2216zm3.6189 3.669v3.8864h-1.2741v-6.5455h1.223v1.0654h.0809c.1506-.3466.3864-.625.7074-.8352.3239-.2103.7316-.3154 1.223-.3154.4461 0 .8367.0938 1.1719.2813.3352.1846.5952.4602.7799.8267.1846.3664.2769.8196.2769 1.3593v4.1634h-1.2741v-4.0099c0-.4745-.1236-.8452-.3707-1.1123-.2472-.2698-.5867-.4048-1.0185-.4048-.2955 0-.5583.0639-.7884.1918-.2272.1278-.4076.3153-.5412.5625-.1306.2443-.196.5397-.196.8863zm8.6419 6.4773c-.52 0-.967-.0682-1.342-.2045-.372-.1364-.676-.3168-.912-.5412-.2359-.2245-.412-.4702-.5285-.7372l1.0955-.4518c.076.125.179.2572.306.3964.131.142.307.2627.529.3622.224.0994.513.1491.865.1491.483 0 .882-.1179 1.197-.3537.316-.2329.473-.6051.473-1.1164v-1.287h-.081c-.076.1392-.187.2941-.332.4645-.142.1705-.338.3182-.588.4432s-.575.1875-.976.1875c-.517 0-.983-.1208-1.398-.3622-.412-.2443-.7382-.6037-.9797-1.0782-.2386-.4772-.358-1.0639-.358-1.7599s.1179-1.2926.3537-1.7898c.2387-.4971.565-.8778.98-1.142.415-.2671.885-.4006 1.411-.4006.406 0 .734.0682.984.2046.25.1335.445.2897.584.4687.142.179.251.3367.328.473h.094v-1.0611h1.248v6.6904c0 .5625-.13 1.0241-.392 1.3849-.261.3608-.615.6279-1.061.8012-.443.1733-.943.2599-1.5.2599zm-.013-3.7457c.367 0 .677-.0853.929-.2557.256-.1733.449-.4205.58-.7415.133-.3239.2-.7116.2-1.1633 0-.4404-.065-.8282-.196-1.1634s-.322-.5966-.575-.7841c-.253-.1903-.565-.2855-.938-.2855-.383 0-.703.0994-.958.2983-.256.196-.449.4631-.58.8011-.128.3381-.192.7159-.192 1.1336 0 .4289.066.8054.196 1.1292.131.3239.324.5767.58.7585.258.1819.577.2728.954.2728zm12.713-5.2799c-.045-.4034-.233-.7159-.562-.9375-.33-.2244-.745-.3366-1.245-.3366-.358 0-.667.0568-.929.1704-.261.1108-.464.2643-.609.4603-.142.1932-.213.4133-.213.6605 0 .2074.048.3863.145.5369.099.1506.228.277.388.3793.161.0994.335.1832.519.2514.185.0653.363.1193.533.1619l.852.2216c.279.0682.564.1605.857.277s.564.2699.814.4602c.25.1904.452.4262.605.7074.156.2813.234.6179.234 1.01 0 .4943-.128.9332-.383 1.3167-.253.3836-.621.6861-1.104.9077-.48.2216-1.061.3324-1.743.3324-.653 0-1.219-.1037-1.696-.3111s-.851-.5014-1.121-.8821c-.269-.3835-.419-.8381-.447-1.3636h1.321c.026.3153.128.5781.307.7883.182.2074.413.3622.694.4645.285.0994.596.1492.934.1492.372 0 .703-.0583.993-.1748.292-.1193.522-.2841.69-.4943.168-.213.251-.4616.251-.7457 0-.2585-.074-.4702-.221-.635-.145-.1647-.343-.3011-.593-.4091-.247-.1079-.527-.2031-.839-.2855l-1.031-.2812c-.699-.1904-1.253-.4702-1.662-.8395-.407-.3693-.61-.858-.61-1.4659 0-.5029.137-.9418.409-1.3168.273-.375.642-.6662 1.108-.8735.466-.2103.992-.3154 1.577-.3154.591 0 1.112.1037 1.564.3111.455.2074.813.4929 1.074.8565.261.3608.398.7756.409 1.2443zm5.618 6.5668c-.614 0-1.15-.1406-1.607-.4219-.457-.2812-.812-.6747-1.065-1.1804s-.379-1.0966-.379-1.7727c0-.679.126-1.2727.379-1.7812.253-.5086.608-.9035 1.065-1.1847.457-.2813.993-.4219 1.607-.4219.613 0 1.149.1406 1.606.4219.458.2812.813.6761 1.066 1.1847.252.5085.379 1.1022.379 1.7812 0 .6761-.127 1.267-.379 1.7727-.253.5057-.608.8992-1.066 1.1804-.457.2813-.993.4219-1.606.4219zm.004-1.0696c.398 0 .727-.1051.989-.3153.261-.2103.454-.4901.579-.8395.128-.3495.192-.7344.192-1.1549 0-.4176-.064-.8011-.192-1.1505-.125-.3523-.318-.635-.579-.848-.262-.2131-.591-.3196-.989-.3196-.401 0-.733.1065-.997.3196-.262.213-.456.4957-.584.848-.125.3494-.188.7329-.188 1.1505 0 .4205.063.8054.188 1.1549.128.3494.322.6292.584.8395.264.2102.596.3153.997.3153zm7.226 1.0696c-.614 0-1.149-.1406-1.606-.4219-.458-.2812-.813-.6747-1.066-1.1804s-.379-1.0966-.379-1.7727c0-.679.126-1.2727.379-1.7812.253-.5086.608-.9035 1.066-1.1847.457-.2813.992-.4219 1.606-.4219s1.149.1406 1.607.4219c.457.2812.812.6761 1.065 1.1847.253.5085.379 1.1022.379 1.7812 0 .6761-.126 1.267-.379 1.7727s-.608.8992-1.065 1.1804c-.458.2813-.993.4219-1.607.4219zm.004-1.0696c.398 0 .728-.1051.989-.3153.261-.2103.455-.4901.58-.8395.127-.3495.191-.7344.191-1.1549 0-.4176-.064-.8011-.191-1.1505-.125-.3523-.319-.635-.58-.848-.261-.2131-.591-.3196-.989-.3196-.4 0-.733.1065-.997.3196-.261.213-.456.4957-.584.848-.125.3494-.187.7329-.187 1.1505 0 .4205.062.8054.187 1.1549.128.3494.323.6292.584.8395.264.2102.597.3153.997.3153zm5.744-2.9489v3.8864h-1.275v-6.5455h1.223v1.0654h.081c.151-.3466.387-.625.708-.8352.324-.2103.731-.3154 1.223-.3154.446 0 .836.0938 1.172.2813.335.1846.595.4602.78.8267.184.3664.277.8196.277 1.3593v4.1634h-1.275v-4.0099c0-.4745-.123-.8452-.37-1.1123-.248-.2698-.587-.4048-1.019-.4048-.295 0-.558.0639-.788.1918-.227.1278-.408.3153-.541.5625-.131.2443-.196.5397-.196.8863zm12.129-2.6591v1.0228h-3.576v-1.0228zm-2.617-1.5681h1.274v6.1917c0 .2472.037.4333.111.5583.074.1221.169.2059.286.2514.119.0426.248.0639.387.0639.103 0 .192-.0071.269-.0213.076-.0142.136-.0256.179-.0341l.23 1.0526c-.074.0284-.179.0568-.315.0852-.137.0312-.307.0483-.512.0511-.335.0057-.648-.054-.937-.179-.29-.125-.525-.3181-.703-.5795-.179-.2614-.269-.5895-.269-.9844zm6.713 8.2457c-.614 0-1.149-.1406-1.607-.4219-.457-.2812-.812-.6747-1.065-1.1804s-.379-1.0966-.379-1.7727c0-.679.126-1.2727.379-1.7812.253-.5086.608-.9035 1.065-1.1847.458-.2813.993-.4219 1.607-.4219.613 0 1.149.1406 1.606.4219.458.2812.813.6761 1.066 1.1847.252.5085.379 1.1022.379 1.7812 0 .6761-.127 1.267-.379 1.7727-.253.5057-.608.8992-1.066 1.1804-.457.2813-.993.4219-1.606.4219zm.004-1.0696c.398 0 .727-.1051.989-.3153.261-.2103.454-.4901.579-.8395.128-.3495.192-.7344.192-1.1549 0-.4176-.064-.8011-.192-1.1505-.125-.3523-.318-.635-.579-.848-.262-.2131-.591-.3196-.989-.3196-.401 0-.733.1065-.997.3196-.261.213-.456.4957-.584.848-.125.3494-.187.7329-.187 1.1505 0 .4205.062.8054.187 1.1549.128.3494.323.6292.584.8395.264.2102.596.3153.997.3153z" fill="#fff"/></svg>