<svg height="32" viewBox="0 0 256 256" width="32" xmlns="http://www.w3.org/2000/svg"><path d="m232 104h-24v-48h24a8 8 0 0 0 0-16h-26.17a16 16 0 0 0 -13.83-8h-16a16 16 0 0 0 -13.83 8h-18.17a104.11 104.11 0 0 0 -104 104v18.16a16 16 0 0 0 -8 13.84v16a16 16 0 0 0 8 13.84v26.16a8 8 0 0 0 16 0v-24h48v24a8 8 0 0 0 16 0v-26.16a16 16 0 0 0 8-13.84v-16a16 16 0 0 0 -8-13.84v-18.16a24 24 0 0 1 24-24h18.17a16 16 0 0 0 13.83 8h16a16 16 0 0 0 13.83-8h26.17a8 8 0 0 0 0-16zm-120 72v16h-64v-16zm-8-32v16h-48v-16a88.1 88.1 0 0 1 88-88h16v48h-16a40 40 0 0 0 -40 40zm72-32v-64h16v63.8.2z"/></svg>