<svg height="32" viewBox="0 0 256 256" width="32" xmlns="http://www.w3.org/2000/svg"><path d="m198.1 62.59a76 76 0 0 0 -140.2 0 71.71 71.71 0 0 0 -41.9 65.21c-.1 38.2 32 71.2 70.14 72.2a72.09 72.09 0 0 0 33.86-7.53v39.53a8 8 0 0 0 16 0v-39.53a72.17 72.17 0 0 0 32 7.53h1.82c38.18-1 70.29-34 70.18-72.2a71.71 71.71 0 0 0 -41.9-65.21zm-28.65 121.41a56.08 56.08 0 0 1 -33.45-10v-41l43.58-21.78a8 8 0 1 0 -7.16-14.32l-36.42 18.16v-27.06a8 8 0 0 0 -16 0v51.06l-36.42-18.22a8 8 0 1 0 -7.16 14.32l43.58 21.78v17a56 56 0 0 1 -33.45 10c-29.65-.71-54.63-26.42-54.55-56.1a55.77 55.77 0 0 1 35.11-51.84 8 8 0 0 0 4.53-4.67 60 60 0 0 1 112.72 0 8 8 0 0 0 4.53 4.67 55.79 55.79 0 0 1 35.11 51.84c.08 29.68-24.9 55.39-54.55 56.16z"/></svg>